<svg xmlns="http://www.w3.org/2000/svg" xmlSpace="preserve" viewBox="0 0 55 50"><path fill="#7D9AA8" d="M46.75 6.01h2.75a5.55 5.55 0 0 1 3.9 1.61c.51.51.92 1.12 1.19 1.79.28.67.42 1.38.42 2.11V44.5c0 1.46-.58 2.86-1.61 3.9a5.508 5.508 0 0 1-3.9 1.61H5.51c-1.46 0-2.86-.58-3.9-1.61A5.543 5.543 0 0 1 0 44.5V11.51c0-.72.14-1.44.42-2.11.28-.66.68-1.27 1.19-1.78.52-.51 1.12-.92 1.79-1.19.67-.28 1.38-.42 2.11-.42h2.75"/><path fill="#FFF" stroke="#29286B" stroke-miterlimit="10" d="M27.5 8.76c0-2.19-.87-4.29-2.42-5.84A8.235 8.235 0 0 0 19.25.5H11c-.73 0-1.43.29-1.94.81-.52.52-.8 1.22-.8 1.95V39c0 .73.29 1.43.81 1.94.52.52 1.21.81 1.94.81h8.25c2.19 0 4.29.87 5.83 2.42a8.258 8.258 0 0 1 2.42 5.84c0-2.19.87-4.29 2.42-5.84a8.235 8.235 0 0 1 5.83-2.42H44c.73 0 1.43-.29 1.94-.81.52-.52.81-1.21.81-1.94V3.26c0-.73-.29-1.43-.8-1.95C45.43.8 44.73.51 44 .5h-8.25c-2.19 0-4.29.87-5.83 2.42S27.5 6.57 27.5 8.76z"/><path fill="none" stroke="#29286B" stroke-miterlimit="10" d="M27.51 8.75V50"/></svg>