<?xml version="1.0" encoding="utf-8"?>
<!-- Generator: Adobe Illustrator 27.4.1, SVG Export Plug-In . SVG Version: 6.00 Build 0)  -->
<svg version="1.1" id="Layer_1" xmlns="http://www.w3.org/2000/svg" xmlns:xlink="http://www.w3.org/1999/xlink" x="0px" y="0px"
	 viewBox="0 0 17.66 18" enable-background="new 0 0 17.66 18" xml:space="preserve">
<path fill="#234011" d="M12.42,17.82h-7.2c-1.4,0-2.54-1.14-2.54-2.54v-5C1.77,9.96,1.02,9.34,0.52,8.49
	C-0.25,7.16-0.16,5.44,0.73,4.2c1-1.38,2.73-1.98,4.34-1.58C5.7,1.17,7.17,0.18,8.83,0.18c1.66,0,3.12,0.99,3.76,2.45
	c1.61-0.4,3.33,0.19,4.33,1.57c0.89,1.23,0.98,2.95,0.23,4.28c-0.49,0.87-1.25,1.49-2.17,1.81v5
	C14.98,16.68,13.83,17.82,12.42,17.82z M4.18,9.77v5.51c0,0.58,0.47,1.04,1.04,1.04h7.2c0.58,0,1.05-0.47,1.05-1.04V9.7
	c0-0.36,0.26-0.67,0.62-0.74c0.54-0.1,1.27-0.39,1.75-1.23c0.47-0.83,0.42-1.89-0.13-2.65c-0.75-1.02-2.12-1.36-3.27-0.81
	c-0.21,0.1-0.45,0.1-0.66,0c-0.21-0.1-0.36-0.3-0.4-0.53c-0.23-1.19-1.3-2.06-2.54-2.06c-1.25,0-2.31,0.86-2.54,2.05
	C6.25,3.96,6.11,4.16,5.9,4.26C5.69,4.37,5.45,4.37,5.23,4.27C4.07,3.71,2.69,4.05,1.95,5.08C1.4,5.85,1.34,6.91,1.82,7.73
	c0.46,0.79,1.14,1.1,1.66,1.22c0.18,0.01,0.35,0.09,0.48,0.22C4.12,9.33,4.2,9.55,4.18,9.77z"/>
<path fill="#234011" d="M14.21,13.79H3.44c-0.41,0-0.75-0.34-0.75-0.75c0-0.41,0.34-0.75,0.75-0.75h10.77
	c0.41,0,0.75,0.34,0.75,0.75C14.96,13.46,14.62,13.79,14.21,13.79z"/>
</svg>
