<?xml version="1.0" encoding="utf-8"?>
<!-- Generator: Adobe Illustrator 27.4.1, SVG Export Plug-In . SVG Version: 6.00 Build 0)  -->
<svg version="1.1" id="Layer_1" xmlns="http://www.w3.org/2000/svg" xmlns:xlink="http://www.w3.org/1999/xlink" x="0px" y="0px"
	 viewBox="0 0 17.69 18" enable-background="new 0 0 17.69 18" xml:space="preserve">
<polygon fill="#234011" points="17.69,6.24 12.92,6.24 12.92,8.2 16.73,8.2 16.73,10.06 12.92,10.06 12.92,13.62 10.51,13.62 
	10.51,4.38 17.69,4.38 "/>
<path fill="#234011" d="M4.21,13.76c-0.82,0-1.55-0.18-2.2-0.55c-0.63-0.36-1.13-0.9-1.48-1.61C0.18,10.89,0,10.03,0,9.01
	c0-1,0.19-1.85,0.56-2.56c0.37-0.71,0.91-1.26,1.6-1.64c0.7-0.38,1.52-0.57,2.46-0.57c1.05,0,1.89,0.19,2.53,0.57
	C7.8,5.19,8.3,5.78,8.65,6.61L6.43,7.49C6.3,7.01,6.09,6.67,5.78,6.45S5.09,6.13,4.63,6.13c-0.46,0-0.85,0.11-1.18,0.34
	C3.13,6.68,2.88,7,2.72,7.43C2.55,7.85,2.46,8.37,2.46,9c0,0.65,0.08,1.2,0.25,1.64c0.18,0.44,0.43,0.77,0.77,0.98
	c0.35,0.21,0.77,0.31,1.27,0.31c0.27,0,0.52-0.03,0.74-0.1c0.22-0.07,0.42-0.16,0.59-0.28c0.17-0.13,0.3-0.29,0.39-0.48
	c0.09-0.2,0.14-0.42,0.14-0.69v-0.14H4.51V8.64h4.16v4.98H7.03l-0.18-2.17l0.39,0.34c-0.2,0.63-0.55,1.12-1.06,1.47
	C5.67,13.59,5.02,13.76,4.21,13.76z"/>
</svg>
