<?xml version="1.0" encoding="utf-8"?>
<!-- Generator: Adobe Illustrator 27.4.1, SVG Export Plug-In . SVG Version: 6.00 Build 0)  -->
<svg version="1.1" id="Layer_1" xmlns="http://www.w3.org/2000/svg" xmlns:xlink="http://www.w3.org/1999/xlink" x="0px" y="0px"
	 viewBox="0 0 18.52 18" enable-background="new 0 0 18.52 18" xml:space="preserve">
<path fill="#234011" d="M14.07,13.76c-0.82,0-1.55-0.18-2.2-0.55c-0.63-0.36-1.13-0.9-1.48-1.61c-0.35-0.71-0.53-1.57-0.53-2.59
	c0-1,0.19-1.85,0.56-2.56c0.37-0.71,0.91-1.26,1.6-1.64c0.7-0.38,1.52-0.57,2.46-0.57c1.05,0,1.89,0.19,2.53,0.57
	c0.64,0.37,1.14,0.97,1.5,1.79l-2.23,0.88c-0.12-0.48-0.34-0.82-0.64-1.04c-0.31-0.21-0.69-0.32-1.15-0.32
	c-0.46,0-0.85,0.11-1.18,0.34C12.99,6.68,12.74,7,12.57,7.43C12.4,7.85,12.32,8.37,12.32,9c0,0.65,0.08,1.2,0.25,1.64
	c0.18,0.44,0.43,0.77,0.77,0.98c0.35,0.21,0.77,0.31,1.27,0.31c0.27,0,0.52-0.03,0.74-0.1c0.22-0.07,0.42-0.16,0.59-0.28
	c0.17-0.13,0.3-0.29,0.39-0.48c0.09-0.2,0.14-0.42,0.14-0.69v-0.14h-2.11V8.64h4.16v4.98h-1.64l-0.18-2.17l0.39,0.34
	c-0.2,0.63-0.55,1.12-1.06,1.47C15.53,13.59,14.87,13.76,14.07,13.76z"/>
<path fill="#234011" d="M9.39,4.38l-3.28,9.24H3.29L0,4.38h2.53l1.69,5.59l0.5,1.82l0.49-1.79l1.72-5.61H9.39z"/>
</svg>
