<svg version="1.1" xmlns="http://www.w3.org/2000/svg" xmlns:xlink="http://www.w3.org/1999/xlink" x="0px" y="0px"
	 viewBox="0 0 14.98 15.08" enable-background="new 0 0 14.98 15.08" xml:space="preserve">
<path fill="#e8e1d4" d="M14.98,6.87c0-0.59-0.18-1.16-0.53-1.65c-0.34-0.48-0.83-0.84-1.39-1.04c-0.56-0.19-1.17-0.21-1.74-0.05
	c-0.57,0.16-1.08,0.5-1.45,0.96c0.38-0.45,0.63-0.99,0.72-1.57s0-1.17-0.24-1.71C10.1,1.29,9.71,0.83,9.21,0.51
	C8.72,0.19,8.14,0.01,7.55,0S6.37,0.15,5.86,0.45C5.36,0.76,4.95,1.2,4.69,1.72c-0.26,0.53-0.37,1.11-0.31,1.7
	C4.44,4,4.67,4.56,5.04,5.02c-0.32-0.36-0.72-0.63-1.17-0.8C3.42,4.05,2.94,4,2.46,4.07C1.98,4.14,1.53,4.32,1.15,4.61
	S0.46,5.27,0.26,5.7c-0.2,0.43-0.29,0.91-0.25,1.38C0.04,7.56,0.2,8.02,0.46,8.42c0.26,0.4,0.62,0.73,1.04,0.96
	c0.42,0.23,0.9,0.35,1.38,0.35c0.17,0,0.35-0.02,0.52-0.05c-0.46,0.21-0.85,0.54-1.13,0.95c-0.29,0.41-0.46,0.89-0.5,1.39
	c-0.04,0.5,0.05,1,0.27,1.45C2.25,13.9,2.59,14.29,3,14.57c0.42,0.28,0.9,0.45,1.4,0.49c0.5,0.04,1.01-0.06,1.46-0.27
	s0.84-0.55,1.13-0.96c0.28-0.41,0.45-0.89,0.49-1.39h0.04c0.04,0.5,0.2,0.98,0.49,1.39c0.28,0.41,0.67,0.75,1.13,0.96
	c0.46,0.22,0.96,0.31,1.47,0.27s0.99-0.21,1.41-0.49c0.42-0.28,0.75-0.67,0.97-1.12C13.2,13,13.29,12.5,13.25,12
	c-0.04-0.5-0.21-0.98-0.5-1.39c-0.29-0.41-0.68-0.74-1.14-0.95c0.17,0.03,0.35,0.05,0.52,0.05c0.76-0.01,1.48-0.31,2.02-0.84
	C14.68,8.34,14.98,7.62,14.98,6.87z"/>
</svg>
